<svg width="512" height="512" viewBox="0 0 512 512" fill="none" xmlns="http://www.w3.org/2000/svg">
<path d="M512 256C512 114.615 397.385 0 256 0V0C114.615 0 0 114.615 0 256V256C0 397.385 114.615 512 256 512V512C397.385 512 512 397.385 512 256V256Z" fill="#F7DF1E"/>
<path fill-rule="evenodd" clip-rule="evenodd" d="M178.833 129.842C175.401 143.1 151.117 147.685 151.117 168.277C151.117 189.226 175.922 193.872 176.464 273.828H174.353C174.575 264.952 174.044 235.194 157.925 211.91C155.571 206.164 153.769 199.934 154.939 192.702C152.266 194.738 150.793 198.158 150.458 202.881C148.55 200.845 146.753 198.972 145.011 197.181C141.726 188.564 147.826 176.884 136.709 172.715C141.579 181.485 138.395 185.551 138.815 190.91C133.884 186.035 129.926 182.431 126.605 179.515C126.142 178.274 125.919 176.956 125.947 175.632C123.137 176.421 120.429 174.695 120.15 172.67C119.487 167.86 126.731 169.27 126.731 169.27C127.541 167.59 125.364 161.045 119.968 162.516C114.571 163.987 115.751 168.43 115.751 168.43C113.979 163.178 110.749 161.702 107.231 161.763C105.631 161.793 103.88 162.323 102.265 162.781C101.916 168.155 102.685 173.942 110.653 174.879C110.653 174.879 106.041 174.665 105.738 180.268C105.434 185.872 112.263 186.671 113.731 185.526C113.731 185.526 110.891 178.629 115.705 178.278C117.73 178.136 119.927 180.431 119.755 183.368C121.328 182.992 122.966 182.992 124.539 183.368C127.734 186.187 131.475 189.674 136.137 194.28C129.996 193.674 126.468 198.27 116.546 193.923C121.785 204.677 132.801 197.328 141.67 199.842C143.832 202.051 146.105 204.372 148.525 206.968L148.879 207.365C142.662 206.639 138.181 207.772 135.433 210.764C143.381 210.194 149.836 213.065 155.728 216.286C169.736 238.171 170.288 265.771 170.136 273.874H166.668C167.346 247.297 150.975 213.019 122.119 213.019C107.803 213.019 97.2582 223.167 97.2582 237.525C97.2582 269.171 138.461 253.363 138.461 272.724C138.461 283.233 126.311 281.549 126.073 281.513C126.392 277.208 129.369 278.292 129.369 275.019C129.369 271.747 126.331 271.665 124.053 269.237C121.75 271.665 118.783 271.782 118.783 275.019C118.783 278.134 121.497 277.309 122.033 280.938C117.69 280.633 118.753 277.625 115.488 277.625C112.222 277.625 112.152 280.679 109.732 282.969C112.152 285.285 112.263 288.267 115.488 288.267C118.712 288.267 117.69 285.259 122.033 284.959C121.487 288.562 118.783 287.763 118.783 290.873C118.783 294.125 121.75 294.232 124.053 296.659C126.357 294.232 129.369 294.115 129.369 290.873C129.369 287.631 126.458 288.628 126.073 284.516C126.326 284.516 142.592 286.206 142.592 271.283C142.592 255.587 128.797 255.455 128.797 243.994C128.797 238.461 132.538 236.13 138.243 236.13C152.418 236.13 162.502 257.063 162.664 273.848H161.434C159.239 273.903 157.152 274.817 155.618 276.397C154.085 277.977 153.226 280.097 153.226 282.305C153.226 284.512 154.085 286.632 155.618 288.212C157.152 289.792 159.239 290.707 161.434 290.761H170.571C167.296 299.377 157.961 302.553 149.704 302.553C135.53 302.553 127.374 307.826 126.119 317.257C130.503 310.254 135.595 312.783 140.172 311.205C144.748 309.627 147.391 305.332 153.881 305.332C149.243 307.77 146.925 310.493 147.203 313.546C149.735 311.175 153.577 311.811 156.164 310.279C158.751 308.747 160.214 304.019 164.263 302.197C162.547 304.35 160.543 307.332 160.006 309.617C162.806 306.981 165.575 307.21 167.691 305.546C169.807 303.881 170.04 300.538 173.578 299.54C172.804 304.411 169.938 311.964 159.743 314.905C149.269 317.928 143.123 324.412 142.829 334.245C147.502 327.858 149.461 328.84 152.954 326.25C156.447 323.659 156.179 321.069 159.986 318.743C158.781 321.287 157.703 323.832 158.006 326.957C159.89 324.204 163.575 323.802 167.321 320.341C169.802 318.04 169.726 313.933 172.151 313.933C173.801 313.933 175.051 315.267 175.051 317.47C175.051 320.987 170.905 324.479 168.946 329.39C168.39 330.903 168.078 332.496 168.02 334.108C163.58 336.907 157.925 337.94 151.314 337.94C133.662 337.94 126.321 325.766 118.252 311.373L76.4316 336.821C88.5459 362.599 112.374 384 153.501 384C199.027 384 230.216 359.657 230.216 306.177V129.842H178.833Z" fill="#444444"/>
<path fill-rule="evenodd" clip-rule="evenodd" d="M368.221 231.042L355.383 225.521C333.359 215.933 323.818 209.664 323.818 194.188C323.818 181.661 333.349 172.078 348.387 172.078C363.127 172.078 372.622 178.326 381.424 194.188L421.385 168.387C404.495 138.493 381.029 127.079 348.387 127.079C302.543 127.079 273.204 156.536 273.204 195.205C273.204 237.214 297.813 257.088 334.861 272.95L347.694 278.532C371.109 288.827 385.066 295.096 385.066 312.788C385.066 327.532 371.479 338.208 350.208 338.208C324.886 338.208 310.571 324.934 299.569 306.875L257.842 331.238C272.921 361.168 303.721 384 351.422 384C400.18 384 436.489 358.549 436.489 312.097C436.464 269.01 411.835 249.843 368.221 231.042Z" fill="#444444"/>
</svg>
